<svg xmlns="http://www.w3.org/2000/svg" width="220" height="100" viewBox="0 0 220 100" fill="none" aria-hidden="true">
  <!-- Retro airship (original pixel-style) -->
  <rect x="30" y="28" width="140" height="36" fill="#6b4f2a" stroke="#000" stroke-width="3"/>
  <rect x="40" y="18" width="110" height="14" fill="#8b6914" stroke="#000" stroke-width="3"/>
  <rect x="50" y="8" width="20" height="14" fill="#5c4030" stroke="#000" stroke-width="2"/>
  <rect x="52" y="2" width="8" height="8" fill="#c23b2e" stroke="#000" stroke-width="2"/>
  <rect x="100" y="4" width="14" height="18" fill="#5c4030" stroke="#000" stroke-width="2"/>
  <rect x="102" y="0" width="6" height="6" fill="#c23b2e" stroke="#000" stroke-width="2"/>
  <rect x="155" y="34" width="28" height="20" fill="#4a3728" stroke="#000" stroke-width="3"/>
  <rect x="175" y="38" width="18" height="12" fill="#3d2914" stroke="#000" stroke-width="2"/>
  <!-- propellers -->
  <rect x="8" y="38" width="26" height="8" fill="#c4a574" stroke="#000" stroke-width="2"/>
  <rect x="4" y="34" width="8" height="16" fill="#e4a11b" stroke="#000" stroke-width="2"/>
  <!-- windows -->
  <rect x="55" y="38" width="12" height="10" fill="#7eb6e0" stroke="#000" stroke-width="2"/>
  <rect x="75" y="38" width="12" height="10" fill="#7eb6e0" stroke="#000" stroke-width="2"/>
  <rect x="95" y="38" width="12" height="10" fill="#7eb6e0" stroke="#000" stroke-width="2"/>
  <rect x="115" y="38" width="12" height="10" fill="#7eb6e0" stroke="#000" stroke-width="2"/>
  <!-- gondola / fins -->
  <rect x="60" y="64" width="70" height="10" fill="#5c4030" stroke="#000" stroke-width="2"/>
  <rect x="20" y="48" width="14" height="20" fill="#6b4f2a" stroke="#000" stroke-width="2"/>
  <rect x="148" y="48" width="14" height="20" fill="#6b4f2a" stroke="#000" stroke-width="2"/>
</svg>
